<svg width="47" height="31" viewBox="0 0 47 31" fill="none" xmlns="http://www.w3.org/2000/svg">
<g id="Group">
<path id="Vector" d="M39.5194 17.4723L30.0878 26.9009L30.0877 26.901C29.711 27.2777 29.4993 27.7888 29.4993 28.3216C29.4993 28.8544 29.711 29.3654 30.0877 29.7422C30.4645 30.119 30.9755 30.3307 31.5084 30.3307C32.0412 30.3307 32.5522 30.119 32.929 29.7422L45.785 16.8863L39.5194 17.4723ZM39.5194 17.4723H2.58165C2.04935 17.4723 1.53885 17.2609 1.16246 16.8845C0.786065 16.5081 0.574609 15.9976 0.574609 15.4653C0.574609 14.933 0.786064 14.4225 1.16246 14.0461C1.53885 13.6697 2.04935 13.4582 2.58165 13.4582L39.5194 13.4582L30.0878 4.02962L30.0877 4.02958C29.711 3.65281 29.4993 3.14179 29.4993 2.60895C29.4993 2.07611 29.711 1.5651 30.0877 1.18832C30.4645 0.81155 30.9755 0.599884 31.5084 0.599884C32.0412 0.599884 32.5522 0.81155 32.929 1.18832L45.785 14.0443L39.5194 17.4723ZM46.2213 14.696C46.1202 14.4524 45.9721 14.231 45.7853 14.0446V16.8859C45.9721 16.6995 46.1202 16.4782 46.2213 16.2345C46.3225 15.9907 46.3746 15.7293 46.3746 15.4653C46.3746 15.2013 46.3225 14.9399 46.2213 14.696Z" fill="#353D67" stroke="#424340" stroke-width="0.8"/>
</g>
</svg>
