<svg width="31" height="47" viewBox="0 0 31 47" fill="none" xmlns="http://www.w3.org/2000/svg">
<g id="Group">
<path id="Vector" d="M13.433 39.5448L4.00435 30.1132L4.00431 30.1131C3.62753 29.7364 3.11652 29.5247 2.58368 29.5247C2.05084 29.5247 1.53983 29.7364 1.16305 30.1131C0.786278 30.4899 0.574609 31.0009 0.574609 31.5338C0.574609 32.0666 0.786278 32.5776 1.16305 32.9544L14.019 45.8104L13.433 39.5448ZM13.433 39.5448V2.60704C13.433 2.07474 13.6444 1.56424 14.0208 1.18785C14.3972 0.811456 14.9077 0.6 15.44 0.6C15.9723 0.6 16.4828 0.811455 16.8592 1.18785C17.2356 1.56424 17.447 2.07474 17.447 2.60704V39.5448L26.8756 30.1132L26.8757 30.1131C27.2525 29.7364 27.7635 29.5247 28.2963 29.5247C28.8292 29.5247 29.3402 29.7364 29.717 30.1131C30.0937 30.4899 30.3054 31.0009 30.3054 31.5338C30.3054 32.0666 30.0937 32.5776 29.7169 32.9544L16.861 45.8104L13.433 39.5448ZM16.2092 46.2467C16.4529 46.1456 16.6743 45.9975 16.8606 45.8107H14.0194C14.2057 45.9975 14.4271 46.1456 14.6708 46.2467C14.9146 46.3479 15.176 46.4 15.44 46.4C15.704 46.4 15.9654 46.3479 16.2092 46.2467Z" fill="#353D67" stroke="#424340" stroke-width="0.8"/>
</g>
</svg>
