<svg width="47" height="31" viewBox="0 0 47 31" fill="none" xmlns="http://www.w3.org/2000/svg">
<g id="Group">
<path id="Vector" d="M7.42982 13.4583L16.8614 4.02974L16.8615 4.0297C17.2382 3.65292 17.4499 3.14191 17.4499 2.60907C17.4499 2.07623 17.2382 1.56522 16.8615 1.18844C16.4847 0.811667 15.9737 0.599999 15.4408 0.599999C14.908 0.599999 14.397 0.811667 14.0202 1.18844L1.16425 14.0444L7.42982 13.4583ZM7.42982 13.4583L44.3676 13.4584C44.8999 13.4584 45.4104 13.6698 45.7868 14.0462C46.1632 14.4226 46.3746 14.9331 46.3746 15.4654C46.3746 15.9977 46.1632 16.5082 45.7868 16.8846C45.4104 17.261 44.8999 17.4724 44.3676 17.4724L7.42982 17.4724L16.8614 26.901L16.8615 26.9011C17.2382 27.2779 17.4499 27.7889 17.4499 28.3217C17.4499 28.8546 17.2382 29.3656 16.8615 29.7423C16.4847 30.1191 15.9737 30.3308 15.4408 30.3308C14.908 30.3308 14.397 30.1191 14.0202 29.7423L1.16425 16.8864L7.42982 13.4583ZM0.72787 16.2346C0.828983 16.4783 0.977149 16.6997 1.16389 16.886L1.16389 14.0448C0.977149 14.2311 0.828983 14.4525 0.727874 14.6962C0.626689 14.94 0.574607 15.2014 0.574607 15.4654C0.574607 15.7294 0.626689 15.9908 0.72787 16.2346Z" fill="#353D67" stroke="#424340" stroke-width="0.8"/>
</g>
</svg>
