<svg width="101" height="101" viewBox="0 0 101 101" fill="none" xmlns="http://www.w3.org/2000/svg">
<g id="Group">
<path id="Vector" d="M100.733 56.7526C91.2585 56.7526 81.7844 56.7621 72.3103 56.7716C58.8577 56.7716 45.4147 56.7716 31.9621 56.7716H30.7217V35.5528C29.7772 35.4287 28.909 35.362 28.0598 35.1998C25.7033 34.7513 23.4325 33.9976 21.4957 32.576C20.1982 31.6219 18.8625 31.7173 17.3264 31.8128V36.7358H0.753906V0.127565H17.3168V3.19017C18.7003 3.4764 19.9787 3.43823 21.219 2.93257C21.4003 2.85624 21.5816 2.77992 21.7438 2.67497C25.188 0.461493 28.9567 -0.130039 33.0116 0.022615C38.5071 0.222973 44.0122 0.0893894 49.5172 0.0703076C53.9156 0.0512259 57.646 1.57776 60.7373 4.70717C63.4373 7.43585 66.1565 10.155 68.8947 12.8455C69.1809 13.1318 69.658 13.3798 70.0492 13.3798C80.172 13.4084 90.3044 13.3989 100.427 13.3989C100.523 13.3989 100.618 13.3798 100.713 13.3703V56.7621L100.733 56.7526ZM64.7349 13.3989C62.531 11.195 60.5083 9.21999 58.5333 7.19733C56.005 4.60222 52.9615 3.37146 49.3455 3.39054C43.0295 3.4287 36.7134 3.43823 30.3974 3.38099C28.5846 3.36191 26.9722 3.76262 25.3502 4.57359C23.6806 5.40365 21.906 6.06198 20.1123 6.59627C19.2918 6.84433 18.3282 6.63442 17.3932 6.63442V28.5879C20.4272 27.5766 22.5929 29.3512 24.8923 30.706C25.0068 30.7728 25.1308 30.811 25.2453 30.8587C26.9531 31.5933 28.7182 32.0704 30.7027 32.1181C30.7027 29.6947 30.674 27.3572 30.7217 25.0197C30.7313 24.3327 30.5023 24.0274 29.8821 23.703C28.6418 23.0542 27.4874 22.2433 26.2375 21.4705C27.0676 20.4496 27.7164 19.6482 28.3652 18.8563C34.166 22.5581 36.0646 22.5009 41.9323 18.3792C42.1326 18.6273 42.333 18.9326 42.581 19.1807C45.5196 22.1383 48.4773 25.0769 51.4159 28.0346C52.389 29.0173 53.5149 29.4562 54.8697 29.0841C57.4075 28.3876 58.1613 25.3536 56.2531 23.4073C52.6371 19.7436 48.9925 16.118 45.3479 12.4925C45.0998 12.2444 44.7373 12.1204 44.5846 12.0346C45.5387 11.0232 46.2733 10.26 47.0557 9.4299C47.5041 9.88786 48.0193 10.3077 48.3914 10.8324C49.937 12.9886 51.9692 13.6374 54.6025 13.4466C57.8655 13.2176 61.1666 13.3894 64.7444 13.3894L64.7349 13.3989ZM34.0897 53.3656H97.3265V16.7859H54.3831C55.3276 17.74 56.1672 18.5319 56.94 19.3905C57.4171 19.9248 57.9418 20.087 58.6478 20.087C67.2823 20.068 75.9072 20.0775 84.5417 20.0775C84.9138 20.0775 85.2859 20.0775 85.7534 20.0775C85.5626 22.6058 85.9824 24.7811 87.7475 26.5271C89.503 28.2636 91.7165 28.5689 94.0253 28.4162V41.7543C91.6497 41.6398 89.4362 41.9642 87.6902 43.7197C85.9347 45.4753 85.5721 47.6697 85.7248 50.0549H45.6627C45.844 47.6983 45.5101 45.4944 43.7641 43.7293C42.0181 41.9738 39.8142 41.6303 37.448 41.7543V28.5879C38.7647 28.3971 40.0336 28.3113 41.2358 27.9964C42.5142 27.6625 43.5447 26.8611 44.2316 25.8593C43.2489 24.8766 42.3139 23.9415 41.3407 22.9684C39.2131 24.3518 36.7325 24.867 34.0992 24.8193V53.3465L34.0897 53.3656ZM40.7683 38.5391C41.045 38.6249 41.2644 38.6917 41.4838 38.749C45.1666 39.7794 47.5995 42.1264 48.6395 45.7901C48.8875 46.6679 49.2596 46.7919 50.0324 46.7919C60.4892 46.7728 70.9365 46.7824 81.3932 46.7824C81.7463 46.7824 82.0993 46.7824 82.4904 46.7824C83.5209 42.2791 86.3068 39.5504 90.6765 38.5295V31.6506C86.2209 30.5915 83.5304 27.8533 82.5 23.4836H60.2316C60.9186 25.3154 60.7755 27.0519 60.1171 28.8169C62.0158 27.3858 64.067 26.6321 66.4141 26.8038C68.7802 26.9755 70.7266 27.9773 72.2531 29.771C74.7814 32.7382 74.8959 37.1366 72.5584 40.2564C70.1923 43.424 65.9084 44.5307 62.3211 42.8801C60.1076 41.8593 58.5906 40.1896 57.8082 37.8807C57.0068 35.5528 57.3121 33.2916 58.4475 30.9827C54.5262 33.3775 51.7116 33.034 48.5727 29.895C47.9812 29.3131 47.3896 28.7311 46.7599 28.1204C45.1284 30.0382 43.1439 31.1449 40.7778 31.641V38.5581L40.7683 38.5391ZM13.9298 33.3965V3.4764H4.08367V33.3965H13.9298ZM70.6979 35.0471C70.6789 32.2803 68.4749 30.1145 65.7081 30.1145C62.9126 30.1145 60.661 32.3852 60.6991 35.1521C60.7373 37.8712 62.9985 40.1133 65.7081 40.1133C68.4845 40.1133 70.7075 37.8426 70.6884 35.0471H70.6979Z" fill="#353D67"/>
<path id="Vector_2" d="M51.2921 100.144C47.3232 98.9042 44.0793 96.3377 40.5587 94.2768C32.9832 89.8403 25.4555 85.2989 17.9278 80.767C13.8824 78.3341 13.3863 72.9053 16.8783 69.8999C19.0154 68.0681 21.9063 67.7723 24.5396 69.1939C29.9874 72.123 35.4162 75.0711 40.8544 78.0097C41.0262 78.1051 41.1979 78.1814 41.4651 78.3245C42.5527 75.405 44.9666 74.3555 47.7334 73.6495C53.4007 72.2088 59.0298 70.5869 64.6971 69.1462C66.2522 68.7455 67.9028 68.6024 69.5152 68.5165C71.3375 68.4116 73.1598 68.5356 74.9821 68.4784C76.938 68.4211 78.703 68.9363 80.3441 69.9763C81.4985 70.7014 82.6816 71.3788 84.0173 72.1802V66.7515H100.723V100.173H84.1127C84.0745 99.3907 84.0459 98.5989 84.0078 97.7593C81.6798 98.5893 79.4758 99.3812 77.2719 100.173H51.2826L51.2921 100.144ZM67.8074 82.0932C66.7865 82.3794 65.8801 82.637 64.9833 82.8755C59.898 84.2303 54.8127 85.6328 49.7084 86.9018C45.6917 87.9035 42.7912 86.2625 41.3124 82.3794C41.2075 82.1123 40.9499 81.8451 40.6923 81.7115C34.7769 78.4963 28.8616 75.2905 22.9272 72.1039C21.2003 71.1784 19.2539 71.7127 18.338 73.2965C17.3935 74.9375 17.9278 76.8552 19.6737 77.9143C29.7489 83.9536 39.8145 90.0025 49.9183 95.9846C50.7674 96.4903 51.8837 96.767 52.8759 96.7765C60.5277 96.8433 68.1795 96.8242 75.8312 96.7956C76.5659 96.7956 77.3292 96.6525 78.0161 96.4044C79.8193 95.7557 81.5844 95.0019 83.3781 94.3245C83.8646 94.1433 84.0841 93.9047 84.0841 93.3418C84.065 87.8081 84.0841 82.2649 84.0459 76.7312C84.0459 76.4163 83.8169 75.9679 83.5593 75.8057C81.7084 74.6513 79.8384 73.5255 77.9493 72.4474C77.4246 72.1516 76.7949 71.8654 76.2129 71.8654C73.2552 71.8463 70.2308 71.5505 67.3494 72.0371C63.3613 72.7145 59.4687 73.9834 55.5378 75.0139C52.7042 75.758 49.8801 76.5213 47.0655 77.2846C45.1478 77.8093 44.0506 79.5648 44.4991 81.3776C44.9284 83.1331 46.5885 84.1921 48.4871 83.7342C51.9314 82.9041 55.347 81.9691 58.7722 81.0723C61.4722 80.3663 64.1628 79.6412 66.9392 78.9065C67.2349 79.9846 67.5021 80.9769 67.8074 82.1027V82.0932ZM87.4902 70.1576V96.7288H97.3459V70.1576H87.4902Z" fill="#353D67"/>
<path id="Vector_3" d="M77.2812 100.144C79.4852 99.3524 81.6891 98.5701 84.0171 97.7305C84.0553 98.5701 84.0934 99.3524 84.122 100.144H77.2812Z" fill="white"/>
<path id="Vector_4" d="M64.7351 13.3987C61.1477 13.3987 57.8561 13.2269 54.5931 13.4559C51.9599 13.6467 49.9277 12.9884 48.382 10.8417C48.0099 10.317 47.4947 9.90671 47.0463 9.4392C46.264 10.2693 45.5293 11.0325 44.5752 12.0439C44.7279 12.1297 45.1 12.2633 45.3385 12.5018C48.9831 16.1274 52.6373 19.7529 56.2437 23.4166C58.1614 25.3629 57.4077 28.3969 54.8603 29.0934C53.5055 29.4655 52.3797 29.017 51.4065 28.0439C48.4679 25.0862 45.5198 22.1476 42.5717 19.19C42.3236 18.9419 42.1232 18.6366 41.9229 18.3885C36.0553 22.5102 34.1566 22.5674 28.3558 18.8656C27.707 19.6575 27.0582 20.4589 26.2282 21.4798C27.478 22.2621 28.6325 23.0731 29.8728 23.7123C30.4834 24.0367 30.7219 24.342 30.7124 25.029C30.6742 27.3665 30.6933 29.704 30.6933 32.1274C28.7088 32.0797 26.9437 31.6026 25.2359 30.868C25.1119 30.8203 24.9879 30.7726 24.8829 30.7153C22.5836 29.3605 20.4082 27.5955 17.3838 28.5972V6.64374C18.3188 6.64374 19.2824 6.85363 20.1029 6.60557C21.8871 6.06174 23.6712 5.41297 25.3409 4.58291C26.9628 3.78148 28.5752 3.38076 30.388 3.3903C36.704 3.44755 43.0201 3.438 49.3361 3.39984C52.9521 3.38076 55.9956 4.61153 58.524 7.20665C60.4989 9.22931 62.5121 11.2043 64.7255 13.4082L64.7351 13.3987Z" fill="white"/>
<path id="Vector_5" d="M34.0898 53.3658V24.8386C36.7231 24.8767 39.2037 24.3711 41.3314 22.9876C42.3045 23.9608 43.23 24.8863 44.2222 25.8785C43.5353 26.8708 42.5049 27.6722 41.2264 28.0157C40.0147 28.3305 38.7458 28.4164 37.4387 28.6072V41.7736C39.8048 41.6496 42.0088 41.993 43.7547 43.7486C45.5007 45.5041 45.8442 47.708 45.6534 50.0741H85.7154C85.5628 47.6794 85.9253 45.485 87.6809 43.739C89.4364 41.9835 91.6403 41.6591 94.016 41.7736V28.4355C91.6976 28.5881 89.4936 28.2828 87.7381 26.5464C85.973 24.8004 85.5532 22.6251 85.7441 20.0968C85.2766 20.0968 84.9045 20.0968 84.5324 20.0968C75.8979 20.0968 67.2729 20.0968 58.6385 20.1063C57.9324 20.1063 57.4077 19.9441 56.9307 19.4098C56.1579 18.5511 55.3183 17.7593 54.3737 16.8052H97.3171V53.3848H34.0898V53.3658Z" fill="white"/>
<path id="Vector_6" d="M40.7683 38.5389V31.6218C43.1345 31.1257 45.119 30.0285 46.7504 28.1012C47.3801 28.7118 47.9717 29.2938 48.5632 29.8758C51.7022 33.0148 54.5167 33.3582 58.438 30.9635C57.3026 33.2819 56.9973 35.5431 57.7988 37.8615C58.5907 40.1609 60.1076 41.84 62.3116 42.8609C65.8894 44.5115 70.1733 43.4048 72.5489 40.2372C74.8864 37.1173 74.7719 32.7094 72.2436 29.7518C70.7171 27.9581 68.7707 26.9563 66.4046 26.7846C64.0576 26.6128 62.0063 27.3666 60.1076 28.7977C60.766 27.0326 60.9091 25.2962 60.2221 23.4644H82.4905C83.5305 27.8341 86.2114 30.5723 90.667 31.6313V38.5103C86.2973 39.5312 83.5114 42.2598 82.481 46.7631C82.0898 46.7631 81.7368 46.7631 81.3838 46.7631C70.927 46.7631 60.4797 46.7631 50.023 46.7727C49.2502 46.7727 48.8781 46.6486 48.63 45.7709C47.5805 42.1072 45.1571 39.7601 41.4744 38.7297C41.2549 38.6725 41.0355 38.6057 40.7588 38.5198L40.7683 38.5389Z" fill="white"/>
<path id="Vector_7" d="M13.9206 33.3967H4.08398V3.47656H13.9302V33.3967H13.9206Z" fill="white"/>
<path id="Vector_8" d="M70.688 35.0469C70.7071 37.8424 68.4841 40.1131 65.7077 40.1131C62.9981 40.1131 60.7273 37.871 60.6987 35.1518C60.6606 32.385 62.9122 30.1238 65.7077 30.1143C68.4745 30.1143 70.6689 32.28 70.6975 35.0469H70.688Z" fill="white"/>
<path id="Vector_9" d="M67.807 82.1028C67.5017 80.9865 67.2346 79.9847 66.9388 78.9066C64.1529 79.6413 61.4624 80.3664 58.7718 81.0724C55.3467 81.9692 51.931 82.9042 48.4868 83.7343C46.5882 84.1922 44.928 83.1332 44.4987 81.3777C44.0503 79.5649 45.1475 77.8094 47.0652 77.2847C49.8893 76.5214 52.7134 75.7581 55.5375 75.014C59.4683 73.9835 63.3514 72.705 67.3491 72.0372C70.2304 71.5506 73.2549 71.8464 76.2125 71.8655C76.7945 71.8655 77.4242 72.1517 77.949 72.4475C79.8476 73.5256 81.7176 74.6514 83.559 75.8058C83.8166 75.968 84.0456 76.4165 84.0456 76.7313C84.0742 82.265 84.0551 87.8082 84.0837 93.3419C84.0837 93.9049 83.8643 94.1338 83.3777 94.3246C81.584 95.002 79.819 95.7653 78.0157 96.4045C77.3288 96.6526 76.556 96.7957 75.8309 96.7957C68.1791 96.8244 60.5274 96.8434 52.8756 96.7767C51.8833 96.7767 50.7671 96.4809 49.9179 95.9847C39.8141 90.0026 29.739 83.9633 19.6734 77.9144C17.9179 76.8649 17.3931 74.9376 18.3377 73.2966C19.2441 71.7128 21.1904 71.1785 22.9268 72.104C28.8612 75.2906 34.7766 78.4964 40.6919 81.7116C40.9495 81.8547 41.2071 82.1124 41.3121 82.3795C42.7909 86.2626 45.6913 87.9037 49.708 86.9019C54.8219 85.6329 59.8977 84.2209 64.9829 82.8756C65.8893 82.6371 66.7862 82.3795 67.807 82.0933V82.1028Z" fill="white"/>
<path id="Vector_10" d="M87.4902 70.1577H97.3459V96.729H87.4902V70.1577Z" fill="white"/>
</g>
</svg>
