<svg width="101" height="100" viewBox="0 0 101 100" fill="none" xmlns="http://www.w3.org/2000/svg">
<g id="Group">
<path id="Vector" d="M94.7972 89.0134C94.6243 89.0134 93.8118 89.0134 92.5152 89.0134C92.5152 82.7725 92.5497 68.1122 92.5497 68.1122C93.0511 68.4752 93.4574 68.8556 93.9328 69.0717C94.3045 69.2446 94.849 69.3742 95.1602 69.2186C95.4714 69.063 95.7307 68.5271 95.748 68.1381C95.8172 66.8242 95.748 65.5103 95.7826 64.1964C95.7999 63.5827 95.5406 63.2024 95.0479 62.8566C87.4498 57.4541 79.8603 52.0256 72.2709 46.6058C72.2536 46.5972 72.2622 46.5626 72.2536 46.5453H71.441C68.5626 48.6199 65.6841 50.6945 62.797 52.7604C58.0428 56.1575 53.2886 59.5459 48.5257 62.9344C48.1021 63.2369 47.9033 63.6 47.912 64.1359C47.9293 65.4758 47.8774 66.8156 47.9466 68.1468C47.9638 68.5271 48.2318 69.063 48.543 69.2186C48.8542 69.3742 49.3988 69.2446 49.7704 69.0717C50.2459 68.8556 50.6435 68.4752 51.1535 68.1122L51.3955 89.0221C48.7677 89.0221 46.9352 89.0307 46.3301 89.0394C45.5781 89.048 45.3015 88.806 45.094 88.0885C43.9184 83.9307 42.6823 79.7989 41.4549 75.6498C40.7893 73.4023 39.5878 72.5033 37.2625 72.4515C37.0032 72.4515 36.7439 72.4083 36.4759 72.391C34.289 63.2802 32.1107 54.2212 29.967 45.1623C29.8805 44.7906 30.0102 44.3238 30.1485 43.9435C30.5894 42.742 31.0388 41.5491 31.5575 40.3821C31.7563 39.9413 32.0675 39.4399 32.4738 39.2152C34.8422 37.9186 37.2539 36.7084 39.6483 35.4637C42.8812 33.7868 46.1054 32.1185 49.3123 30.4588C51.214 32.153 52.1821 32.2654 54.395 31.1071C55.8558 30.3378 57.3167 29.5425 58.7948 28.8251C59.2875 28.5831 59.8667 28.4188 60.4199 28.3929C63.3934 28.2805 66.367 28.22 69.3405 28.1508C70.0666 28.1336 70.6458 27.9693 70.9397 27.1827C72.3746 23.3275 73.8354 19.4722 75.279 15.6257C75.5469 14.9082 75.3913 14.3204 74.7603 13.845C73.9478 13.2313 73.1785 12.583 72.3832 11.9519C71.2076 11.0097 70.6458 11.0962 69.8764 12.3582C68.5626 14.5192 67.266 16.6975 65.9175 18.8412C65.7014 19.1784 65.2433 19.4809 64.8543 19.5587C63.7997 19.7661 62.7106 19.8267 61.6387 19.965C60.8434 20.0687 60.2557 20.4404 60.3853 21.348C60.5063 22.1778 61.1201 22.4285 61.8894 22.3334C63.2638 22.1778 64.6555 22.0741 66.0039 21.7975C66.5485 21.6851 67.1795 21.2702 67.4821 20.8034C68.6922 18.9709 69.7814 17.0692 70.9224 15.1935C71.1039 14.8909 71.3114 14.6057 71.562 14.2253C72.0115 14.8996 73.0747 14.9082 72.6425 16.0319C71.4583 19.0487 70.3692 22.1 69.1849 25.1168C69.0639 25.4193 68.5971 25.7651 68.2773 25.7737C65.7792 25.8861 63.2811 25.912 60.7743 26.0071C60.2038 26.0331 59.9445 25.817 59.6938 25.3415C57.1006 20.3712 54.4987 15.4096 51.8709 10.4652C51.5684 9.89467 51.6376 9.51433 52.0179 9.02162C53.4614 7.11129 54.8964 5.18367 56.2708 3.21284C56.6684 2.64233 57.0401 2.52996 57.6884 2.70284C60.5928 3.47216 63.5058 4.18961 66.4188 4.92435C67.4158 5.17791 67.8566 5.86367 67.7414 6.98163C67.4561 6.98163 67.1622 6.99892 66.8683 6.98163C64.6122 6.84333 62.3475 6.72231 60.0914 6.54943C59.348 6.49757 58.8035 6.72231 58.3194 7.29282C57.455 8.3301 56.5387 9.3328 55.6397 10.3355C55.0865 10.9492 54.9223 11.6148 55.6052 12.194C56.2362 12.7299 56.8585 12.5052 57.3772 11.926C57.939 11.295 58.5701 10.7072 59.0455 10.0157C59.6851 9.09077 60.489 8.89195 61.5523 8.98704C63.938 9.20314 66.341 9.31551 68.7354 9.46246C69.8419 9.53162 70.3259 9.08213 70.2914 7.99298C70.2481 6.80875 70.1444 5.63316 70.0666 4.44893C70.0148 3.72283 69.6344 3.27334 68.917 3.09182C64.9234 2.08911 60.9385 1.06912 56.945 0.0664112C56.2189 -0.115113 55.6397 0.0664065 55.1903 0.723352C54.4209 1.82979 53.5047 2.84979 52.8131 4.00808C50.7645 7.45705 47.912 9.87738 44.2037 11.4506C41.7142 12.5138 41.282 13.8018 41.9649 16.4728C41.8785 16.5419 41.7834 16.6284 41.671 16.6889C35.9141 19.6711 30.1658 22.6619 24.4002 25.6095C24.0372 25.791 23.484 25.7737 23.0777 25.6614C17.3381 23.9931 11.2267 26.5171 8.46929 31.7468C5.63405 37.1147 6.98252 43.5372 11.7194 47.3838C12.0998 47.6863 12.4023 48.2136 12.5233 48.6891C14.0188 54.8522 15.471 61.0327 16.9318 67.2046C17.3381 68.9247 17.727 70.6449 18.1247 72.4082C17.8394 72.4255 17.7098 72.4601 17.5715 72.4428C14.9523 72.2181 13.4915 73.4369 12.7827 76.0647C11.6935 80.1014 10.4315 84.095 9.29047 88.1231C9.10895 88.7541 8.85827 89.0134 8.19268 88.9789C7.21591 88.927 6.23049 88.9356 5.25371 88.9789C2.66915 89.0739 0.534075 90.8633 0.361195 93.2404C0.231534 95.0556 0.300686 96.8882 0.309331 98.712C0.309331 99.49 0.776108 99.8703 1.53678 99.8963C1.8739 99.9136 2.21102 99.9049 2.54813 99.9049C34.3236 99.9049 66.0904 99.9049 97.8658 99.9049C98.0646 99.9049 98.2721 99.9049 98.4709 99.9049C99.8453 99.8876 100.156 99.5937 100.165 98.2453C100.165 96.9573 100.165 95.678 100.165 94.39C100.148 91.0189 98.1856 89.0653 94.8058 89.0307L94.7972 89.0134Z" fill="white"/>
<g id="Group_2">
<path id="Vector_2" d="M94.5202 89.1258C97.9087 89.1517 99.8622 91.1139 99.8795 94.4851C99.8795 95.773 99.8795 97.0523 99.8795 98.3403C99.8709 99.6801 99.5597 99.9827 98.1853 100C97.9865 100 97.779 100 97.5802 100C65.8048 100 34.038 100 2.26252 100C1.92541 100 1.58829 100 1.25117 99.9913C0.490499 99.9567 0.0237214 99.5764 0.0237214 98.8071C0.0150774 96.9832 -0.0627188 95.1507 0.0755856 93.3354C0.248466 90.9583 2.38354 89.169 4.9681 89.0739C5.94488 89.0393 6.9303 89.022 7.90707 89.0739C8.58131 89.1085 8.83198 88.8492 9.00486 88.2182C10.1545 84.1987 11.4079 80.2051 12.4971 76.1597C13.2059 73.5319 14.6667 72.3132 17.2858 72.5379C17.4155 72.5466 17.5538 72.5206 17.8391 72.5033C17.4328 70.7399 17.0525 69.0198 16.6462 67.2996C15.1853 61.1278 13.7331 54.9473 12.2377 48.7841C12.1254 48.3087 11.8142 47.7814 11.4338 47.4789C6.69691 43.6323 5.34844 37.2098 8.18368 31.8418C10.9411 26.6208 17.0525 24.0881 22.7921 25.7564C23.1984 25.8774 23.7516 25.8947 24.1146 25.7046C29.8888 22.757 35.6371 19.7661 41.3854 16.7839C41.4978 16.7234 41.5928 16.637 41.6793 16.5678C40.9964 13.8968 41.4286 12.6089 43.9181 11.5457C47.6264 9.97244 50.4789 7.55211 52.5275 4.10315C53.2104 2.94485 54.1267 1.92485 54.9046 0.818414C55.3541 0.170112 55.9333 -0.0200516 56.6594 0.161473C60.6529 1.17282 64.6378 2.18418 68.6314 3.18688C69.3488 3.36841 69.7291 3.80924 69.781 4.54399C69.8588 5.72822 69.9625 6.90381 70.0058 8.08804C70.049 9.17719 69.5649 9.61803 68.4498 9.55752C66.0554 9.41058 63.661 9.2982 61.2666 9.0821C60.2034 8.98702 59.3995 9.18583 58.7599 10.1107C58.2845 10.8023 57.6534 11.3901 57.0916 12.0211C56.5729 12.6002 55.9506 12.825 55.3196 12.289C54.6453 11.7099 54.8096 11.0443 55.3541 10.4306C56.2531 9.41922 57.1694 8.42516 58.0338 7.38788C58.5092 6.81737 59.0624 6.59263 59.8058 6.64449C62.0619 6.80873 64.3266 6.93839 66.5827 7.07669C66.8766 7.09398 67.1705 7.07669 67.4558 7.07669C67.571 5.95873 67.1302 5.27297 66.1332 5.01941C63.2202 4.28467 60.3072 3.56722 57.4028 2.7979C56.7545 2.62502 56.3828 2.73739 55.9851 3.3079C54.6107 5.27009 53.1845 7.19771 51.7323 9.11668C51.3606 9.60939 51.2828 9.98973 51.5853 10.5602C54.2131 15.5046 56.815 20.4749 59.4082 25.4366C59.6589 25.912 59.9182 26.1281 60.4887 26.1022C62.9868 26.0071 65.4936 25.9812 67.9917 25.8688C68.3115 25.8515 68.7869 25.5058 68.8993 25.2119C70.0836 22.1951 71.1727 19.1438 72.3483 16.127C72.7891 15.0033 71.7173 14.9946 71.2678 14.3204C71.0171 14.7007 70.8097 14.986 70.6281 15.2885C69.4871 17.1643 68.3893 19.0659 67.1878 20.8985C66.8766 21.3653 66.2542 21.7802 65.7097 21.8926C64.3612 22.1692 62.9695 22.2729 61.5951 22.4285C60.8258 22.5149 60.2121 22.2642 60.0911 21.4431C59.9614 20.5354 60.5492 20.1637 61.3444 20.06C62.4163 19.9217 63.4968 19.8612 64.56 19.6538C64.949 19.576 65.4071 19.2734 65.6232 18.9363C66.9803 16.7926 68.2683 14.6143 69.5822 12.4533C70.3515 11.1913 70.9134 11.1048 72.089 12.047C72.8842 12.678 73.6535 13.335 74.4661 13.9401C75.1057 14.4155 75.2527 15.0033 74.9847 15.7207C73.5325 19.576 72.0803 23.4225 70.6454 27.2778C70.3515 28.0557 69.7724 28.2286 69.0463 28.2459C66.0727 28.3151 63.0992 28.3756 60.1256 28.4879C59.5811 28.5052 58.9933 28.6781 58.5006 28.9201C57.0138 29.6462 55.5616 30.4415 54.1007 31.2022C51.8965 32.3605 50.9284 32.2481 49.0181 30.5539C45.8198 32.2135 42.5869 33.8905 39.354 35.5588C36.9596 36.8035 34.548 38.0223 32.1795 39.3103C31.7819 39.5264 31.462 40.0364 31.2632 40.4772C30.7446 41.6441 30.2865 42.837 29.8543 44.0385C29.716 44.4189 29.5776 44.8857 29.6727 45.2574C31.8164 54.3163 33.9947 63.3752 36.1817 72.486C36.4496 72.512 36.709 72.5465 36.9683 72.5465C39.3022 72.5898 40.5037 73.4974 41.1606 75.7448C42.3881 79.8853 43.6242 84.0258 44.7998 88.1749C44.9986 88.8924 45.2838 89.1344 46.0359 89.1258C49.4762 89.0826 93.094 89.0998 94.5116 89.1085L94.5202 89.1258ZM97.4592 97.6142C97.4592 96.2052 97.5456 94.8913 97.4333 93.5947C97.3468 92.5229 96.6121 91.8314 95.5575 91.5893C95.0734 91.4769 94.5548 91.4683 94.0534 91.4683C64.6551 91.4683 35.2481 91.4683 5.8498 91.4683C5.31387 91.4683 4.76065 91.4856 4.24201 91.6152C3.3171 91.8314 2.591 92.4451 2.49591 93.3786C2.36625 94.7617 2.46134 96.1707 2.46134 97.6229H97.4592V97.6142ZM42.5783 89.0653C42.5091 88.7454 42.4659 88.4861 42.3881 88.2354C41.2298 84.2851 40.0542 80.3434 38.9218 76.3845C38.6193 75.3386 38.0574 74.9323 36.9596 74.9323C30.2346 74.9669 23.5095 74.9669 16.7845 74.9323C15.6694 74.9323 15.1421 75.3818 14.8482 76.4191C13.7418 80.3089 12.5748 84.19 11.4425 88.0712C11.3474 88.3824 11.2955 88.7022 11.2177 89.0566H42.5869L42.5783 89.0653ZM14.8914 49.4756C14.8914 49.6745 14.8655 49.8128 14.8914 49.9338C16.6289 57.2553 18.375 64.5681 20.0779 71.8896C20.2335 72.5465 20.5706 72.5638 21.0719 72.5638C25.0568 72.5552 29.0417 72.5638 33.0353 72.5552C33.2514 72.5552 33.4761 72.512 33.7786 72.4774C31.73 63.9371 29.6987 55.4659 27.6327 46.8738C23.7775 50.1239 19.5852 50.997 14.8828 49.4756H14.8914ZM19.2394 27.6322C13.7764 27.5112 9.1691 31.9801 9.01351 37.5382C8.86656 42.9667 13.3355 47.6863 18.7467 47.816C24.469 47.9543 29.1282 43.5372 29.2232 37.8753C29.3183 32.3432 24.8494 27.7532 19.2307 27.6235L19.2394 27.6322ZM47.9808 28.4447C46.2606 25.1773 44.575 21.9703 42.8635 18.7115C37.2363 21.6246 31.7214 24.4771 26.4053 27.2259C27.6327 28.73 28.9985 30.0439 29.8888 31.6171C30.7792 33.1816 31.1941 35.0142 31.8424 36.8035C37.0979 34.0806 42.5005 31.28 47.9721 28.4447H47.9808ZM49.3552 11.3468C47.6177 12.2631 45.9754 13.1102 44.3503 13.9833C43.7193 14.3204 43.5205 14.8477 43.8662 15.5133C44.1169 15.9887 44.3676 16.4641 44.6183 16.9482C46.6582 20.8293 48.6982 24.7105 50.7209 28.5917C51.058 29.24 51.473 29.8623 52.2682 29.4906C54.0143 28.6608 55.7172 27.71 57.4719 26.7937C54.7491 21.6073 52.0867 16.5419 49.3552 11.3468Z" fill="#353D67"/>
<path id="Vector_3" d="M26.8892 86.593C24.3393 86.593 22.3338 84.5876 22.3252 82.0376C22.3252 79.4962 24.3306 77.4476 26.8547 77.4303C29.4133 77.413 31.5051 79.4962 31.4879 82.0462C31.4706 84.5616 29.4219 86.593 26.8892 86.5843V86.593ZM29.1021 82.0289C29.1194 80.7928 28.2031 79.8333 26.9757 79.7988C25.7223 79.7642 24.685 80.741 24.6677 81.977C24.6504 83.1959 25.6964 84.2418 26.9238 84.2245C28.1426 84.2072 29.0935 83.2564 29.1021 82.0289Z" fill="#353D67"/>
<path id="Vector_4" d="M19.1094 43.1481C16.1359 43.1481 13.6896 40.6932 13.6983 37.7283C13.7069 34.7375 16.1359 32.3345 19.1267 32.3345C22.1175 32.3345 24.5465 34.7634 24.5379 37.7456C24.5379 40.7105 22.0743 43.1481 19.1008 43.1481H19.1094ZM19.144 40.771C20.8209 40.7624 22.1608 39.4139 22.1608 37.737C22.1608 36.086 20.7864 34.6856 19.144 34.6684C17.4843 34.6511 16.0494 36.1033 16.0667 37.7889C16.0927 39.4571 17.4584 40.7883 19.1354 40.771H19.144Z" fill="#353D67"/>
<g id="Group_3">
<path id="Vector_5" d="M47.67 68.2503C47.6873 68.6307 47.9553 69.1666 48.2664 69.3222C48.5776 69.4778 49.1222 69.3481 49.4939 69.1753C49.9693 68.9592 50.3669 68.5788 50.8769 68.2158L51.1449 91.278L92.2386 91.1225C92.2386 87.077 92.2732 68.2158 92.2732 68.2158C92.7745 68.5788 93.1808 68.9592 93.6562 69.1753C94.0279 69.3481 94.5725 69.4778 94.8837 69.3222C95.1949 69.1666 95.4542 68.6307 95.4715 68.2417C95.5406 66.9278 95.4715 65.6139 95.506 64.3C95.5233 63.6863 95.264 63.306 94.7713 62.9602C87.1732 57.549 79.5838 52.1292 71.9943 46.7094C71.977 46.7008 71.9857 46.6662 71.977 46.6489H71.1645C68.286 48.7235 65.4075 50.7981 62.5204 52.864C57.7662 56.2611 53.012 59.6495 48.2492 63.038C47.8256 63.3405 47.6268 63.7036 47.6354 64.2395C47.6527 65.5793 47.6009 66.9192 47.67 68.2503ZM73.7058 89.0133H69.4357V78.2256H73.7058V89.0133ZM90.0517 88.5465V89.0306H75.91V88.3131C75.91 84.6913 75.91 81.0608 75.91 77.4389C75.91 76.3584 75.5729 76.0127 74.5011 76.0127C72.5043 76.0127 70.5162 76.0127 68.5194 76.0127C67.5772 76.0127 67.2055 76.3844 67.2055 77.3266C67.2055 80.9743 67.2055 84.6221 67.2055 88.2699V89.0306H53.0985C53.0898 88.8145 53.0725 88.5984 53.0725 88.3823C53.0725 81.3374 53.0725 74.2925 53.0898 67.2476C53.0898 66.9537 53.2195 66.5475 53.4356 66.3919C59.4432 62.0699 65.4767 57.7738 71.5535 53.4345C71.7436 53.5641 71.9424 53.7024 72.1412 53.8407C77.9241 57.9726 83.7156 62.1044 89.4985 66.2363C89.8183 66.461 90.0603 66.6599 90.0603 67.1353C90.043 74.2752 90.043 81.4066 90.043 88.5465H90.0517ZM50.6176 64.0321C57.3945 59.1914 64.1715 54.3508 70.957 49.5101C71.1385 49.3804 71.3287 49.2508 71.5535 49.0952C71.735 49.2162 71.9165 49.3286 72.098 49.4582C78.8058 54.247 85.4963 59.0531 92.23 63.7987C93.1376 64.4383 93.5352 65.078 93.2327 66.219C92.472 65.6744 91.7373 65.1558 91.0025 64.6371C84.9085 60.2806 78.8058 55.924 72.7118 51.5674C71.6226 50.7894 71.4929 50.7981 70.3779 51.5847C63.7306 56.3302 57.0747 61.0845 50.4275 65.83C50.2632 65.951 50.099 66.0548 49.9261 66.1758C49.5976 65.0434 49.7273 64.6544 50.6176 64.0234V64.0321Z" fill="#353D67"/>
<path id="Vector_6" d="M65.0445 75.5458C65.0445 76.7214 65.0531 77.897 65.0445 79.0726C65.0358 79.9543 64.6295 80.3605 63.7478 80.3692C61.3535 80.3778 58.9504 80.3778 56.556 80.3692C55.6743 80.3692 55.2681 79.9543 55.2594 79.0726C55.2508 76.6782 55.2508 74.2751 55.2594 71.8807C55.2594 70.999 55.6743 70.5928 56.556 70.5841C58.9504 70.5755 61.3535 70.5755 63.7478 70.5841C64.6295 70.5841 65.0358 70.999 65.0445 71.8807C65.0617 73.0995 65.0445 74.327 65.0445 75.5458ZM62.8575 72.8143H57.4809V78.1476H62.8575V72.8143Z" fill="#353D67"/>
<path id="Vector_7" d="M87.8817 75.4765C87.8817 76.6521 87.8817 77.8277 87.8817 79.0033C87.8817 79.9714 87.4841 80.369 86.516 80.369C84.1648 80.369 81.8136 80.369 79.4624 80.369C78.4943 80.369 78.0967 79.9714 78.0967 79.0033C78.0967 76.6521 78.0967 74.3009 78.0967 71.9497C78.0967 70.9816 78.4943 70.584 79.4624 70.584C81.8136 70.584 84.1648 70.584 86.516 70.584C87.4841 70.584 87.8731 70.9816 87.8817 71.9497C87.8904 73.1253 87.8817 74.3009 87.8817 75.4765ZM85.6775 72.8055H80.3268V78.1562H85.6775V72.8055Z" fill="#353D67"/>
<path id="Vector_8" d="M75.9187 65.1559C75.9101 67.5416 73.896 69.5211 71.5276 69.4865C69.1677 69.4519 67.2228 67.4811 67.2315 65.1299C67.2401 62.7442 69.2542 60.7647 71.6226 60.7993C73.9825 60.8339 75.9274 62.8047 75.9187 65.1559ZM71.5967 62.9689C70.4211 62.9603 69.4271 63.9198 69.4011 65.0954C69.3838 66.2709 70.3347 67.2736 71.5189 67.3082C72.7291 67.3428 73.7404 66.3487 73.7491 65.1472C73.7491 63.9716 72.7809 62.9862 71.6053 62.9689H71.5967Z" fill="#353D67"/>
</g>
</g>
</g>
</svg>
