<svg width="61" height="107" viewBox="0 0 61 107" fill="none" xmlns="http://www.w3.org/2000/svg">
<g id="Group">
<path id="Vector" d="M14.4746 92.6717C14.3946 88.2417 13.1946 84.3217 10.8046 80.8217C7.86456 76.5117 5.01456 72.1517 3.11456 67.2517C1.55456 63.2317 0.494565 59.1117 1.19456 54.7717C2.06456 49.3317 5.19456 45.5117 10.0646 43.0917C10.8046 42.7217 11.0846 42.3517 11.0846 41.5117C11.0546 32.9417 11.0246 24.3817 11.0846 15.8117C11.1246 9.70173 17.7346 5.94172 23.0146 8.99172C25.7746 10.5817 27.0546 13.0817 27.0646 16.2317C27.0846 21.0117 27.0746 25.7917 27.0846 30.5717C27.0846 30.6517 27.1146 30.7317 27.1446 30.9017C31.7446 29.0517 35.3346 30.2617 37.9146 34.6317C40.0446 33.3817 42.3246 32.9317 44.7246 33.7817C47.1446 34.6317 48.6746 36.3617 49.5746 38.8317C51.3546 37.8917 53.1946 37.5517 55.1246 37.9817C58.3546 38.7117 60.7746 41.5717 60.8046 44.9417C60.8646 51.3517 60.9246 57.7717 60.7846 64.1817C60.6546 70.0417 59.0746 75.5717 56.3446 80.7617C54.6146 84.0517 53.4346 87.4717 53.3546 91.2117C53.3546 91.6417 53.3546 92.0717 53.3546 92.6617C54.2546 92.6617 55.0846 92.6317 55.9046 92.6617C57.5146 92.7217 58.1546 93.3617 58.1646 94.9517C58.1846 98.2217 58.1846 101.482 58.1646 104.752C58.1646 106.302 57.4446 107.002 55.8746 107.002C41.2946 107.002 26.7146 107.002 12.1346 107.002C10.6446 107.002 9.91457 106.292 9.90456 104.812C9.88456 101.502 9.88456 98.2017 9.90456 94.8917C9.90456 93.3517 10.6246 92.6817 12.2046 92.6517C12.9446 92.6417 13.6846 92.6517 14.4846 92.6517L14.4746 92.6717ZM49.2446 92.6317C49.5646 90.4317 49.5946 88.2717 50.2346 86.3017C51.3746 82.7917 52.8046 79.3817 54.2446 75.9817C56.0846 71.6317 57.1546 67.1917 57.0346 62.4217C56.9046 56.9317 57.0046 51.4317 56.9946 45.9317C56.9946 45.3817 56.9946 44.8017 56.8546 44.2717C56.3746 42.5317 54.7246 41.5017 52.9046 41.7317C51.1746 41.9517 49.8646 43.4117 49.8346 45.3017C49.7846 47.6917 49.8346 50.0817 49.8146 52.4717C49.8046 53.7217 49.0546 54.4917 47.9446 54.5017C46.8346 54.5017 46.0846 53.7517 46.0046 52.5217C45.9846 52.2417 46.0046 51.9617 46.0046 51.6817C46.0046 48.2517 46.0046 44.8317 46.0046 41.4017C46.0046 40.8917 45.9846 40.3517 45.8446 39.8717C45.3146 38.0517 43.6146 36.9817 41.7046 37.2217C39.8946 37.4417 38.5246 38.9317 38.4846 40.9417C38.4246 44.2817 38.4646 47.6317 38.4546 50.9817C38.4546 51.3817 38.4646 51.7817 38.4146 52.1717C38.2846 53.2417 37.5046 53.9617 36.5246 53.9517C35.5446 53.9517 34.7746 53.2117 34.6646 52.1417C34.6246 51.7517 34.6346 51.3417 34.6346 50.9517C34.6346 46.7717 34.6346 42.5917 34.6246 38.4017C34.6246 37.7317 34.5846 37.0317 34.3846 36.4017C33.8446 34.7217 32.0646 33.6717 30.3446 33.9217C28.4946 34.1917 27.1146 35.7117 27.0946 37.6217C27.0646 41.8417 27.0946 46.0617 27.0746 50.2917C27.0746 50.7217 27.0746 51.1817 26.9546 51.5917C26.6746 52.5517 25.9746 53.0617 24.9846 52.9717C24.0046 52.8817 23.3946 52.2817 23.2846 51.2717C23.2446 50.8817 23.2646 50.4717 23.2646 50.0817C23.2646 39.0117 23.2646 27.9317 23.2646 16.8617C23.2646 16.4217 23.2846 15.9817 23.2346 15.5517C23.0246 13.5517 21.6346 12.0717 19.6846 11.7417C17.9346 11.4417 15.9946 12.4417 15.3146 14.1517C15.0346 14.8617 14.9346 15.7017 14.9346 16.4717C14.9146 30.6117 14.9246 44.7517 14.9146 58.8917C14.9146 60.4417 14.1346 61.3917 12.9346 61.3417C11.7646 61.3017 11.0946 60.4217 11.0946 58.8917C11.0946 55.3117 11.0946 51.7217 11.0946 48.1417C11.0946 47.8117 11.0546 47.4817 11.0246 47.0017C7.87456 48.7617 5.89456 51.2317 5.14456 54.6017C4.43456 57.7717 5.02456 60.8517 6.00456 63.8817C7.69456 69.0917 10.5246 73.6917 13.6546 78.1317C15.7646 81.1317 17.2146 84.4317 17.8746 88.0517C18.1446 89.5617 18.2946 91.1017 18.5046 92.6617H49.2846L49.2446 92.6317ZM13.7746 103.112H54.2346V96.5517H13.7746V103.112Z" fill="#353D67"/>
<path id="Vector_2" d="M4.31479 14.0419C4.72479 8.09192 7.50479 3.39191 13.5448 1.02191C19.1648 -1.17809 25.6248 0.251923 29.7048 4.56192C32.5348 7.55192 33.6248 11.2219 33.5848 15.2719C33.5748 16.4419 32.8248 17.2019 31.7748 17.2319C30.6748 17.2719 29.9148 16.5219 29.7748 15.2919C29.6248 13.9919 29.5948 12.6619 29.2548 11.4119C27.8948 6.42191 23.1848 3.38191 17.8148 3.92191C12.4848 4.46191 8.60479 8.33192 8.20479 13.5119C8.14479 14.2219 8.16479 14.9419 8.11479 15.6619C8.01479 16.9119 7.26479 17.6519 6.16479 17.6419C5.07479 17.6219 4.36479 16.8619 4.30479 15.5919C4.28479 15.1919 4.30479 14.7919 4.30479 14.0419H4.31479Z" fill="#353D67"/>
<path id="Vector_3" d="M49.2447 92.6317H18.4647C18.2547 91.0717 18.1047 89.5317 17.8347 88.0217C17.1747 84.4017 15.7247 81.1117 13.6147 78.1017C10.4947 73.6617 7.66467 69.0617 5.96467 63.8517C4.98467 60.8217 4.39467 57.7417 5.10467 54.5717C5.85467 51.2017 7.83467 48.7317 10.9847 46.9717C11.0147 47.4417 11.0547 47.7817 11.0547 48.1117C11.0547 51.6917 11.0547 55.2817 11.0547 58.8617C11.0547 60.3917 11.7247 61.2717 12.8947 61.3117C14.0947 61.3517 14.8747 60.4017 14.8747 58.8617C14.8747 44.7217 14.8747 30.5817 14.8947 16.4417C14.8947 15.6617 14.9947 14.8317 15.2747 14.1217C15.9547 12.4217 17.8947 11.4117 19.6447 11.7117C21.5947 12.0417 22.9847 13.5217 23.1947 15.5217C23.2447 15.9517 23.2247 16.4017 23.2247 16.8317C23.2247 27.9017 23.2247 38.9817 23.2247 50.0517C23.2247 50.4517 23.2047 50.8517 23.2447 51.2417C23.3547 52.2517 23.9747 52.8417 24.9447 52.9417C25.9347 53.0417 26.6347 52.5217 26.9147 51.5617C27.0347 51.1517 27.0347 50.7017 27.0347 50.2617C27.0347 46.0417 27.0247 41.8217 27.0547 37.5917C27.0647 35.6717 28.4547 34.1517 30.3047 33.8917C32.0247 33.6417 33.8147 34.6917 34.3447 36.3717C34.5447 37.0017 34.5847 37.7017 34.5847 38.3717C34.6047 42.5517 34.5847 46.7317 34.5947 50.9217C34.5947 51.3217 34.5847 51.7217 34.6247 52.1117C34.7447 53.1817 35.5047 53.9117 36.4847 53.9217C37.4647 53.9217 38.2547 53.2117 38.3747 52.1417C38.4247 51.7517 38.4147 51.3417 38.4147 50.9517C38.4147 47.6017 38.3847 44.2617 38.4447 40.9117C38.4847 38.9117 39.8547 37.4117 41.6647 37.1917C43.5747 36.9617 45.2847 38.0317 45.8047 39.8417C45.9447 40.3317 45.9647 40.8617 45.9647 41.3717C45.9747 44.8017 45.9647 48.2217 45.9647 51.6517C45.9647 51.9317 45.9547 52.2117 45.9647 52.4917C46.0447 53.7217 46.7947 54.4817 47.9047 54.4717C49.0047 54.4717 49.7547 53.6917 49.7747 52.4417C49.8047 50.0517 49.7547 47.6617 49.7947 45.2717C49.8347 43.3917 51.1347 41.9317 52.8647 41.7017C54.6847 41.4717 56.3347 42.5017 56.8147 44.2417C56.9547 44.7717 56.9547 45.3417 56.9547 45.9017C56.9547 51.4017 56.8547 56.9017 56.9947 62.3917C57.1147 67.1617 56.0347 71.6017 54.2047 75.9517C52.7647 79.3517 51.3347 82.7717 50.1947 86.2717C49.5547 88.2317 49.5247 90.4017 49.2047 92.6017L49.2447 92.6317Z" fill="white"/>
<path id="Vector_4" d="M13.7744 103.122V96.562H54.2344V103.122H13.7744Z" fill="white"/>
</g>
</svg>
