<svg width="122" height="58" viewBox="0 0 122 58" fill="none" xmlns="http://www.w3.org/2000/svg">
<g id="Group">
<path id="Vector" d="M36.2941 4.3C32.7941 2.1 28.7941 1 24.2941 1C19.7941 1 15.8541 2.1 12.3341 4.3C8.81414 6.5 6.04415 9.7 4.02415 13.9C2.00415 18.1 0.994141 23.17 0.994141 29.13C0.994141 35.09 2.00415 40.16 4.02415 44.36C6.04415 48.56 8.81414 51.75 12.3341 53.95C15.8541 56.15 19.8441 57.25 24.2941 57.25C28.7441 57.25 32.8041 56.15 36.2941 53.95C39.7941 51.75 42.5441 48.55 44.5641 44.36C46.5841 40.16 47.5941 35.09 47.5941 29.13C47.5941 23.17 46.5841 18.1 44.5641 13.9C42.5441 9.7 39.7841 6.51 36.2941 4.3ZM33.5742 39.15C32.6642 41.74 31.4241 43.63 29.8441 44.82C28.2641 46.01 26.4141 46.61 24.2841 46.61C22.1541 46.61 20.3841 46.02 18.8041 44.82C17.2241 43.63 15.9841 41.74 15.0741 39.15C14.1641 36.56 13.7141 33.22 13.7141 29.13C13.7141 25.04 14.1641 21.7 15.0741 19.11C15.9841 16.52 17.2241 14.63 18.8041 13.44C20.3841 12.25 22.2141 11.65 24.2841 11.65C26.3541 11.65 28.2541 12.25 29.8441 13.44C31.4241 14.63 32.6642 16.52 33.5742 19.11C34.4842 21.7 34.9342 25.04 34.9342 29.13C34.9342 33.22 34.4842 36.56 33.5742 39.15Z" stroke="#353D67" stroke-width="0.75"/>
<path id="Vector_2" d="M91.8941 28.1102C89.5041 26.0102 86.2941 24.6602 82.2941 24.0302L94.5341 10.0902V1.93018H56.4641V12.0302H79.6041L68.4341 24.6902V33.0002H74.1841C77.7541 33.0002 80.3441 33.6002 81.9541 34.7902C83.5541 35.9802 84.3641 37.6102 84.3641 39.6802C84.3641 41.8602 83.4541 43.5602 81.6441 44.8102C79.8341 46.0502 77.3441 46.6702 74.1841 46.6702C71.3841 46.6702 68.6141 46.2302 65.8741 45.3502C63.1241 44.4702 60.7241 43.2802 58.6441 41.7802L53.7441 51.4102C56.3341 53.2702 59.4941 54.7102 63.2241 55.7202C66.9541 56.7302 70.7041 57.2402 74.4941 57.2402C79.6741 57.2402 83.9241 56.4102 87.2341 54.7502C90.5441 53.0902 93.0141 50.9302 94.6141 48.2602C96.2241 45.5902 97.0241 42.7302 97.0241 39.6802C97.0241 34.9702 95.3141 31.1102 91.8941 28.1002V28.1102Z" stroke="#353D67" stroke-width="0.75"/>
<path id="Vector_3" d="M119.234 43.9199C117.784 42.5499 115.994 41.8599 113.874 41.8599C111.754 41.8599 110.024 42.5499 108.554 43.9199C107.074 45.2899 106.344 47.0899 106.344 49.3199C106.344 51.5499 107.084 53.3699 108.554 54.7999C110.034 56.2199 111.804 56.9399 113.874 56.9399C115.944 56.9399 117.784 56.2299 119.234 54.7999C120.684 53.3799 121.414 51.5499 121.414 49.3199C121.414 47.0899 120.684 45.2899 119.234 43.9199Z" stroke="#353D67" stroke-width="0.75"/>
</g>
</svg>
