<svg width="107" height="58" viewBox="0 0 107 58" fill="none" xmlns="http://www.w3.org/2000/svg">
<g id="Group">
<path id="Vector" d="M36.1145 4.3C32.6145 2.1 28.6145 1 24.1145 1C19.6145 1 15.6745 2.1 12.1545 4.3C8.63445 6.5 5.86445 9.7 3.84445 13.9C1.82445 18.1 0.814453 23.17 0.814453 29.13C0.814453 35.09 1.82445 40.16 3.84445 44.36C5.86445 48.56 8.63445 51.75 12.1545 53.95C15.6745 56.15 19.6645 57.25 24.1145 57.25C28.5645 57.25 32.6245 56.15 36.1145 53.95C39.6145 51.75 42.3645 48.55 44.3845 44.36C46.4045 40.16 47.4145 35.09 47.4145 29.13C47.4145 23.17 46.4045 18.1 44.3845 13.9C42.3645 9.7 39.6045 6.51 36.1145 4.3ZM33.3945 39.15C32.4845 41.74 31.2445 43.63 29.6645 44.82C28.0845 46.01 26.2345 46.61 24.1045 46.61C21.9745 46.61 20.2045 46.02 18.6245 44.82C17.0445 43.63 15.8045 41.74 14.8945 39.15C13.9845 36.56 13.5345 33.22 13.5345 29.13C13.5345 25.04 13.9845 21.7 14.8945 19.11C15.8045 16.52 17.0445 14.63 18.6245 13.44C20.2045 12.25 22.0345 11.65 24.1045 11.65C26.1745 11.65 28.0745 12.25 29.6645 13.44C31.2445 14.63 32.4845 16.52 33.3945 19.11C34.3045 21.7 34.7545 25.04 34.7545 29.13C34.7545 33.22 34.3045 36.56 33.3945 39.15Z" stroke="#424340" stroke-width="0.75"/>
<path id="Vector_2" d="M54.6445 12.0302H65.5245V56.3102H78.1045V1.93018H54.6445V12.0302Z" stroke="#424340" stroke-width="0.75"/>
<path id="Vector_3" d="M103.985 43.9199C102.535 42.5499 100.745 41.8599 98.6247 41.8599C96.5047 41.8599 94.7747 42.5499 93.3047 43.9199C91.8247 45.2899 91.0947 47.0899 91.0947 49.3199C91.0947 51.5499 91.8347 53.3699 93.3047 54.7999C94.7847 56.2199 96.5547 56.9399 98.6247 56.9399C100.695 56.9399 102.535 56.2299 103.985 54.7999C105.435 53.3799 106.165 51.5499 106.165 49.3199C106.165 47.0899 105.435 45.2899 103.985 43.9199Z" stroke="#424340" stroke-width="0.75"/>
</g>
</svg>
