<svg width="123" height="58" viewBox="0 0 123 58" fill="none" xmlns="http://www.w3.org/2000/svg">
<g id="Group 107343">
<path id="Vector" d="M36.0539 4.3C32.5539 2.1 28.5539 1 24.0539 1C19.5539 1 15.6139 2.1 12.0939 4.3C8.5739 6.5 5.80391 9.7 3.78391 13.9C1.76391 18.1 0.753906 23.17 0.753906 29.13C0.753906 35.09 1.76391 40.16 3.78391 44.36C5.80391 48.56 8.5739 51.75 12.0939 53.95C15.6139 56.15 19.6039 57.25 24.0539 57.25C28.5039 57.25 32.5639 56.15 36.0539 53.95C39.5539 51.75 42.3039 48.55 44.3239 44.36C46.3439 40.16 47.3539 35.09 47.3539 29.13C47.3539 23.17 46.3439 18.1 44.3239 13.9C42.3039 9.7 39.5439 6.51 36.0539 4.3ZM33.3339 39.15C32.4239 41.74 31.1839 43.63 29.6039 44.82C28.0239 46.01 26.1739 46.61 24.0439 46.61C21.9139 46.61 20.1439 46.02 18.5639 44.82C16.9839 43.63 15.7439 41.74 14.8339 39.15C13.9239 36.56 13.4739 33.22 13.4739 29.13C13.4739 25.04 13.9239 21.7 14.8339 19.11C15.7439 16.52 16.9839 14.63 18.5639 13.44C20.1439 12.25 21.9739 11.65 24.0439 11.65C26.1139 11.65 28.0139 12.25 29.6039 13.44C31.1839 14.63 32.4239 16.52 33.3339 19.11C34.2439 21.7 34.6939 25.04 34.6939 29.13C34.6939 33.22 34.2439 36.56 33.3339 39.15Z" stroke="#424340" stroke-width="0.75"/>
<path id="Vector_2" d="M86.8235 34.25C89.3635 31.87 91.2935 29.72 92.6135 27.8C93.9335 25.88 94.8135 24.06 95.2535 22.32C95.6935 20.59 95.9135 18.84 95.9135 17.08C95.9135 13.77 95.0735 10.92 93.3835 8.53C91.7035 6.15 89.3435 4.3 86.3135 2.98C83.2835 1.66 79.7535 1 75.7035 1C70.8335 1 66.5335 1.91 62.8035 3.72C59.0735 5.53 56.1735 7.99 54.1035 11.1L63.2735 17C64.6235 15.14 66.2635 13.76 68.2035 12.88C70.1435 12 72.2535 11.56 74.5335 11.56C77.3835 11.56 79.5435 12.14 81.0235 13.31C82.5035 14.48 83.2335 16.15 83.2335 18.32C83.2335 19.15 83.0935 20.06 82.8035 21.04C82.5135 22.02 81.9835 23.11 81.2135 24.3C80.4335 25.49 79.2235 26.84 77.5635 28.34L56.5835 48.15V56.31H97.6835V46.05H74.2735L86.8135 34.24L86.8235 34.25Z" stroke="#424340" stroke-width="0.75"/>
<path id="Vector_3" d="M120.084 43.9199C118.634 42.5499 116.844 41.8599 114.724 41.8599C112.604 41.8599 110.874 42.5499 109.404 43.9199C107.924 45.2899 107.194 47.0899 107.194 49.3199C107.194 51.5499 107.934 53.3699 109.404 54.7999C110.884 56.2199 112.654 56.9399 114.724 56.9399C116.794 56.9399 118.634 56.2299 120.084 54.7999C121.534 53.3799 122.264 51.5499 122.264 49.3199C122.264 47.0899 121.534 45.2899 120.084 43.9199Z" stroke="#424340" stroke-width="0.75"/>
</g>
</svg>
